<?xml version="1.0" standalone="no"?>
<!DOCTYPE svg PUBLIC "-//W3C//DTD SVG 20010904//EN"
 "http://www.w3.org/TR/2001/REC-SVG-20010904/DTD/svg10.dtd">
<svg version="1.0" xmlns="http://www.w3.org/2000/svg"
 width="300.000000pt" height="300.000000pt" viewBox="0 0 300.000000 300.000000"
 preserveAspectRatio="xMidYMid meet">

<g transform="translate(0.000000,300.000000) scale(0.100000,-0.100000)"
fill="#000000" stroke="none">
<path d="M947 2750 c-20 -24 -24 -106 -4 -113 15 -5 16 -415 1 -425 -15 -10
-34 -264 -34 -439 l0 -153 65 0 65 0 0 153 c0 173 19 409 34 419 15 10 14 470
-1 475 -7 3 -13 15 -13 28 0 13 -4 35 -10 49 -8 22 -16 26 -48 26 -25 0 -43
-7 -55 -20z"/>
<path d="M1177 2750 c-20 -24 -24 -106 -4 -113 15 -5 16 -415 1 -425 -15 -10
-34 -264 -34 -439 l0 -153 65 0 65 0 0 153 c0 173 19 409 34 419 15 10 14 470
-1 475 -7 3 -13 15 -13 28 0 13 -4 35 -10 49 -8 22 -16 26 -48 26 -25 0 -43
-7 -55 -20z"/>
<path d="M1409 2748 c-9 -17 -9 -53 1 -155 11 -109 11 -167 0 -316 -7 -100
-17 -185 -23 -189 -6 -4 -12 -95 -15 -237 l-5 -231 67 0 66 0 0 153 c0 173 19
409 34 419 15 10 14 470 -1 475 -7 3 -13 15 -13 28 0 13 -4 35 -10 49 -8 22
-16 26 -49 26 -31 0 -43 -5 -52 -22z"/>
<path d="M1639 2748 c-9 -17 -9 -53 1 -154 10 -107 10 -166 0 -306 -6 -95 -16
-176 -22 -179 -6 -4 -11 -71 -11 -161 -2 -135 0 -157 16 -172 9 -10 17 -23 17
-29 0 -17 41 -53 70 -62 14 -4 28 -12 32 -18 9 -14 187 -15 196 -1 4 6 18 15
32 19 30 9 130 110 130 130 0 8 5 15 10 15 16 0 12 119 -4 136 -8 8 -32 14
-54 14 -36 0 -41 -3 -51 -31 -6 -18 -11 -40 -11 -50 0 -11 -4 -19 -10 -19 -5
0 -10 -6 -10 -14 0 -24 -47 -64 -86 -75 -46 -12 -105 -1 -131 25 -16 15 -18
34 -16 138 2 66 7 122 12 125 5 3 15 91 22 194 10 149 10 216 1 320 -7 72 -16
133 -20 136 -5 3 -11 14 -15 24 -10 27 -83 24 -98 -5z"/>
<path d="M2550 2720 c0 -6 -69 -10 -187 -10 -104 0 -266 -3 -360 -7 l-173 -6
7 -71 c3 -39 11 -74 17 -78 6 -4 219 -8 474 -8 l462 0 0 95 0 95 -120 0 c-73
0 -120 -4 -120 -10z"/>
<path d="M590 2661 c0 -5 -9 -11 -20 -14 -22 -6 -28 -54 -10 -88 10 -18 23
-19 168 -19 l157 0 -3 50 c-2 27 -8 50 -13 50 -5 0 -9 7 -9 15 0 13 -22 15
-135 15 -74 0 -135 -4 -135 -9z"/>
<path d="M557 2443 c-11 -10 -8 -62 3 -84 9 -16 22 -19 85 -19 43 0 75 -4 75
-10 0 -6 33 -10 79 -10 90 0 91 1 91 81 l0 49 -163 0 c-90 0 -167 -3 -170 -7z"/>
<path d="M1860 2395 c0 -30 -4 -55 -10 -55 -5 0 -10 -11 -10 -25 l0 -25 228 0
c125 0 338 -3 475 -7 l247 -6 0 86 0 87 -465 0 -465 0 0 -55z"/>
<path d="M202 1419 c3 -61 10 -114 15 -118 6 -3 13 -27 17 -53 4 -27 11 -48
15 -48 5 0 12 -16 15 -35 4 -19 11 -35 16 -35 4 0 11 -13 15 -30 4 -16 10 -30
14 -30 5 0 14 -20 21 -44 7 -25 18 -47 26 -50 8 -3 14 -10 14 -16 0 -6 13 -23
29 -38 16 -15 32 -37 36 -49 3 -13 10 -23 14 -23 4 0 34 -25 67 -55 88 -83 87
-82 112 -89 12 -4 22 -12 22 -17 0 -5 7 -9 15 -9 9 0 18 -6 21 -14 3 -8 19
-18 35 -21 16 -4 29 -11 29 -16 0 -5 6 -9 14 -9 8 0 21 -6 28 -13 7 -7 40 -19
73 -27 33 -8 63 -17 66 -22 3 -4 33 -11 67 -14 34 -4 62 -11 62 -15 0 -5 7 -9
15 -9 12 0 15 -19 15 -115 0 -63 4 -115 9 -115 5 0 11 -9 14 -20 3 -11 12 -20
21 -20 9 0 16 -4 16 -10 0 -6 122 -10 345 -10 195 0 345 4 345 9 0 5 11 12 24
15 31 8 36 29 36 159 0 100 1 107 20 107 11 0 20 4 20 9 0 5 29 12 65 16 36 3
65 10 65 14 0 4 27 13 60 19 33 7 60 17 60 22 0 4 14 11 30 15 17 4 30 11 30
16 0 5 11 11 25 15 14 3 25 10 25 14 0 4 11 11 25 14 14 4 25 11 25 16 0 6 11
15 25 20 14 5 25 14 25 19 0 5 10 13 22 17 20 6 78 61 78 75 0 3 11 12 25 19
13 7 28 22 31 34 4 11 20 31 35 45 16 14 29 31 29 39 0 7 6 15 14 18 8 3 18
19 21 35 4 16 10 29 15 29 5 0 11 13 15 30 4 16 10 30 15 30 4 0 14 23 21 50
7 28 16 50 20 50 4 0 11 21 15 48 4 26 11 50 17 53 5 4 12 57 15 118 l5 111
-1298 0 -1298 0 5 -111z"/>
</g>
</svg>
